<svg xmlns="http://www.w3.org/2000/svg" style="display:none">

  <!-- ===================== MEATIFY ICONS ===================== -->
  <symbol id="icon-added" viewBox="0 0 16 16"><path d="M0 8a8 8 0 1 1 16 0A8 8 0 0 1 0 8m11.748-1.97a.75.75 0 0 0-1.06-1.06l-4.47 4.47-1.405-1.406a.75.75 0 1 0-1.061 1.06l2.466 2.467 5.53-5.53z" fill="currentColor"></path></symbol>
  <symbol id="icon-arrow-right" viewBox="0 0 16 16"><path d="M4.97.47a.75.75 0 0 0 0 1.06L11.44 8l-6.47 6.47a.75.75 0 1 0 1.06 1.06L13.56 8 6.03.47a.75.75 0 0 0-1.06 0" fill="currentColor"></path></symbol>
  <symbol id="icon-big-more" viewBox="0 0 16 16"><path d="M3 8a1.5 1.5 0 1 1-3 0 1.5 1.5 0 0 1 3 0m6.5 0a1.5 1.5 0 1 1-3 0 1.5 1.5 0 0 1 3 0M16 8a1.5 1.5 0 1 1-3 0 1.5 1.5 0 0 1 3 0" fill="currentColor"></path></symbol>
  <symbol id="icon-browse" viewBox="0 0 24 24"><path d="M15 15.5c0 1.105-1.343 2-3 2s-3-.895-3-2 1.343-2 3-2 3 .895 3 2" fill="currentColor"></path><path d="M1.513 9.37A1 1 0 0 1 2.291 9h19.418a1 1 0 0 1 .979 1.208l-2.339 11a1 1 0 0 1-.978.792H4.63a1 1 0 0 1-.978-.792l-2.339-11a1 1 0 0 1 .201-.837zM3.525 11l1.913 9h13.123l1.913-9zM4 2a1 1 0 0 1 1-1h14a1 1 0 0 1 1 1v4h-2V3H6v3H4z" fill="currentColor"></path></symbol>
  <symbol id="icon-callapse-left" viewBox="0 0 16 16"><path d="M10.97 5.47a.75.75 0 1 1 1.06 1.06L10.56 8l1.47 1.47a.75.75 0 1 1-1.06 1.06l-2-2a.75.75 0 0 1 0-1.06z" fill="currentColor"></path><path d="M1 0a1 1 0 0 0-1 1v14a1 1 0 0 0 1 1h14a1 1 0 0 0 1-1V1a1 1 0 0 0-1-1zm.5 1.5H5v13H1.5zm13 13h-8v-13h8z" fill="currentColor"></path></symbol>
  <symbol id="icon-callapse-right" viewBox="0 0 16 16"><path d="M5.03 10.53a.75.75 0 1 1-1.06-1.06L5.44 8 3.97 6.53a.75.75 0 0 1 1.06-1.06l2 2a.75.75 0 0 1 0 1.06z" fill="currentColor"></path><path d="M1 0a1 1 0 0 0-1 1v14a1 1 0 0 0 1 1h14a1 1 0 0 0 1-1V1a1 1 0 0 0-1-1zm.5 1.5h8v13h-8zm13 13H11v-13h3.5z" fill="currentColor"></path></symbol>
  <symbol id="icon-close" viewBox="0 0 24 24"><path d="M3.293 3.293a1 1 0 0 1 1.414 0L12 10.586l7.293-7.293a1 1 0 1 1 1.414 1.414L13.414 12l7.293 7.293a1 1 0 0 1-1.414 1.414L12 13.414l-7.293 7.293a1 1 0 0 1-1.414-1.414L10.586 12 3.293 4.707a1 1 0 0 1 0-1.414" fill="currentColor"></path></symbol>
  <symbol id="icon-create" viewBox="0 0 16 16"><path d="M15.25 8a.75.75 0 0 1-.75.75H8.75v5.75a.75.75 0 0 1-1.5 0V8.75H1.5a.75.75 0 0 1 0-1.5h5.75V1.5a.75.75 0 0 1 1.5 0v5.75h5.75a.75.75 0 0 1 .75.75" fill="currentColor"></path></symbol>
  <symbol id="icon-devices" viewBox="0 0 16 16"><path d="M6 2.75C6 1.784 6.784 1 7.75 1h6.5c.966 0 1.75.784 1.75 1.75v10.5A1.75 1.75 0 0 1 14.25 15h-6.5A1.75 1.75 0 0 1 6 13.25zm1.75-.25a.25.25 0 0 0-.25.25v10.5c0 .138.112.25.25.25h6.5a.25.25 0 0 0 .25-.25V2.75a.25.25 0 0 0-.25-.25zm-6 0a.25.25 0 0 0-.25.25v6.5c0 .138.112.25.25.25H4V11H1.75A1.75 1.75 0 0 1 0 9.25v-6.5C0 1.784.784 1 1.75 1H4v1.5zM4 15H2v-1.5h2z" fill-opacity="0.7" fill="currentColor"></path><path d="M13 10a2 2 0 1 1-4 0 2 2 0 0 1 4 0m-1-5a1 1 0 1 1-2 0 1 1 0 0 1 2 0" fill-opacity="0.7" fill="currentColor"></path></symbol>
  <symbol id="icon-download" viewBox="0 0 16 16"><path d="M4.995 8.745a.75.75 0 0 1 1.06 0L7.25 9.939V4a.75.75 0 0 1 1.5 0v5.94l1.195-1.195a.75.75 0 1 1 1.06 1.06L8 12.811l-.528-.528-.005-.005-2.472-2.473a.75.75 0 0 1 0-1.06" fill="currentColor"></path><path d="M0 8a8 8 0 1 1 16 0A8 8 0 0 1 0 8m8-6.5a6.5 6.5 0 1 0 0 13 6.5 6.5 0 0 0 0-13" fill="currentColor"></path></symbol>
  <symbol id="icon-expend" viewBox="0 0 16 16"><path d="M6.53 9.47a.75.75 0 0 1 0 1.06l-2.72 2.72h1.018a.75.75 0 0 1 0 1.5H1.25v-3.579a.75.75 0 0 1 1.5 0v1.018l2.72-2.72a.75.75 0 0 1 1.06 0zm2.94-2.94a.75.75 0 0 1 0-1.06l2.72-2.72h-1.018a.75.75 0 1 1 0-1.5h3.578v3.579a.75.75 0 0 1-1.5 0V3.81l-2.72 2.72a.75.75 0 0 1-1.06 0" fill="currentColor"></path></symbol>
  <symbol id="icon-filter" viewBox="0 0 402.577 402.577"><g><path fill="currentColor" d="M400.858,11.427c-3.241-7.421-8.85-11.132-16.854-11.136H18.564c-7.993,0-13.61,3.715-16.846,11.136 c-3.234,7.801-1.903,14.467,3.999,19.985l140.757,140.753v138.755c0,4.955,1.809,9.232,5.424,12.854l73.085,73.083 c3.429,3.614,7.71,5.428,12.851,5.428c2.282,0,4.66-0.479,7.135-1.43c7.426-3.238,11.14-8.851,11.14-16.845V172.166L396.861,31.413 C402.765,25.895,404.093,19.231,400.858,11.427z"></path></g></symbol>
  <symbol id="icon-friends" viewBox="0 0 16 16"><path d="M3.849 10.034c-.021-.465.026-.93.139-1.381H1.669c.143-.303.375-.556.665-.724l.922-.532a1.63 1.63 0 0 0 .436-2.458 1.8 1.8 0 0 1-.474-1.081q-.014-.287.057-.563a1.12 1.12 0 0 1 .627-.7 1.2 1.2 0 0 1 .944 0q.225.1.392.281c.108.12.188.263.237.417q.074.276.057.561a1.8 1.8 0 0 1-.475 1.084 1.6 1.6 0 0 0-.124 1.9c.36-.388.792-.702 1.272-.927v-.015c.48-.546.768-1.233.821-1.958a3.2 3.2 0 0 0-.135-1.132 2.657 2.657 0 0 0-5.04 0c-.111.367-.157.75-.135 1.133.053.724.341 1.41.821 1.955A.13.13 0 0 1 2.565 6a.13.13 0 0 1-.063.091l-.922.532A3.2 3.2 0 0 0-.004 9.396v.75h3.866c.001-.033-.01-.071-.013-.112m10.568-3.4-.922-.532a.13.13 0 0 1-.064-.091.12.12 0 0 1 .028-.1c.48-.546.768-1.233.821-1.958a3.3 3.3 0 0 0-.135-1.135A2.64 2.64 0 0 0 12.7 1.233a2.67 2.67 0 0 0-3.042.64 2.65 2.65 0 0 0-.554.948c-.11.367-.156.75-.134 1.133.053.724.341 1.41.821 1.955.005.006 0 .011 0 .018.48.225.911.54 1.272.927a1.6 1.6 0 0 0-.125-1.907 1.8 1.8 0 0 1-.474-1.081q-.015-.287.057-.563a1.12 1.12 0 0 1 .627-.7 1.2 1.2 0 0 1 .944 0q.225.1.392.281.162.182.236.413c.05.184.07.375.058.565a1.8 1.8 0 0 1-.475 1.084 1.633 1.633 0 0 0 .438 2.456l.922.532c.29.169.52.421.664.724h-2.319c.113.452.16.918.139 1.383 0 .04-.013.078-.017.117h3.866v-.75a3.2 3.2 0 0 0-1.58-2.778v.004zm-3.625 6-.922-.532a.13.13 0 0 1-.061-.144.1.1 0 0 1 .025-.047 3.33 3.33 0 0 0 .821-1.958 3.2 3.2 0 0 0-.135-1.132 2.657 2.657 0 0 0-5.041 0c-.11.367-.156.75-.134 1.133.053.724.341 1.41.821 1.955a.13.13 0 0 1 .028.106.13.13 0 0 1-.063.091l-.922.532a3.2 3.2 0 0 0-1.584 2.773v.75h8.75v-.75a3.2 3.2 0 0 0-1.583-2.781zm-5.5 2.023c.143-.303.375-.556.665-.724l.922-.532a1.63 1.63 0 0 0 .436-2.458 1.8 1.8 0 0 1-.474-1.081q-.015-.287.057-.563a1.12 1.12 0 0 1 .627-.7 1.2 1.2 0 0 1 .944 0q.225.1.392.281c.108.12.188.263.237.417q.073.276.057.561a1.8 1.8 0 0 1-.475 1.084 1.632 1.632 0 0 0 .438 2.456l.922.532c.29.169.52.421.664.724z" fill="currentColor"></path></symbol>
  <symbol id="icon-fullscreen" viewBox="0 0 16 16"><path fill-rule="evenodd" clip-rule="evenodd" d="M0.25 3C0.25 2.0335 1.0335 1.25 2 1.25H5.375V2.75H2C1.86193 2.75 1.75 2.86193 1.75 3V5.42857H0.25V3ZM14 2.75H10.625V1.25H14C14.9665 1.25 15.75 2.0335 15.75 3V5.42857H14.25V3C14.25 2.86193 14.1381 2.75 14 2.75ZM1.75 10.5714V13C1.75 13.1381 1.86193 13.25 2 13.25H5.375V14.75H2C1.0335 14.75 0.25 13.9665 0.25 13V10.5714H1.75ZM14.25 13V10.5714H15.75V13C15.75 13.9665 14.9665 14.75 14 14.75H10.625V13.25H14C14.1381 13.25 14.25 13.1381 14.25 13Z" fill="currentColor" fill-opacity="0.7"></path></symbol>
  <symbol id="icon-home" viewBox="0 0 24 24"><path d="M13.5 1.515a3 3 0 0 0-3 0L3 5.845a2 2 0 0 0-1 1.732V21a1 1 0 0 0 1 1h6a1 1 0 0 0 1-1v-6h4v6a1 1 0 0 0 1 1h6a1 1 0 0 0 1-1V7.577a2 2 0 0 0-1-1.732z" fill="currentColor"></path></symbol>
  <symbol id="icon-like" viewBox="0 0 24 24"><path d="M11.999 3a9 9 0 1 0 0 18 9 9 0 0 0 0-18m-11 9c0-6.075 4.925-11 11-11s11 4.925 11 11-4.925 11-11 11-11-4.925-11-11" fill="currentColor"></path><path d="M17.999 12a1 1 0 0 1-1 1h-4v4a1 1 0 1 1-2 0v-4h-4a1 1 0 1 1 0-2h4V7a1 1 0 1 1 2 0v4h4a1 1 0 0 1 1 1" fill="currentColor"></path></symbol>
  <symbol id="icon-default-view" viewBox="0 0 16 16"><path d="M15 14.5H5V13h10zm0-5.75H5v-1.5h10zM15 3H5V1.5h10zM3 3H1V1.5h2zm0 11.5H1V13h2zm0-5.75H1v-1.5h2z" fill="currentColor"></path></symbol>
  <symbol id="icon-lyrics" viewBox="0 0 16 16"><path d="M13.426 2.574a2.831 2.831 0 0 0-4.797 1.55l3.247 3.247a2.831 2.831 0 0 0 1.55-4.797M10.5 8.118l-2.619-2.62L4.74 9.075 2.065 12.12a1.287 1.287 0 0 0 1.816 1.816l3.06-2.688 3.56-3.129zM7.12 4.094a4.331 4.331 0 1 1 4.786 4.786l-3.974 3.493-3.06 2.689a2.787 2.787 0 0 1-3.933-3.933l2.676-3.045z" fill-opacity="0.7" fill="currentColor"></path></symbol>
  <symbol id="icon-miniplayer" viewBox="0 0 16 16"><path d="M16 2.45c0-.8-.65-1.45-1.45-1.45H1.45C.65 1 0 1.65 0 2.45v11.1C0 14.35.65 15 1.45 15h5.557v-1.5H1.5v-11h13V7H16z" fill-opacity="0.7" fill="currentColor"></path><path d="M15.25 9.007a.75.75 0 0 1 .75.75v4.493a.75.75 0 0 1-.75.75H9.325a.75.75 0 0 1-.75-.75V9.757a.75.75 0 0 1 .75-.75z" fill-opacity="0.7" fill="currentColor"></path></symbol>
  <symbol id="icon-more" viewBox="0 0 24 24"><path d="M4.5 13.5a1.5 1.5 0 1 0 0-3 1.5 1.5 0 0 0 0 3m15 0a1.5 1.5 0 1 0 0-3 1.5 1.5 0 0 0 0 3m-7.5 0a1.5 1.5 0 1 0 0-3 1.5 1.5 0 0 0 0 3" fill="currentColor"></path></symbol>
  <symbol id="icon-music" viewBox="0 0 24 24"><path d="M6 3h15v15.167a3.5 3.5 0 1 1-3.5-3.5H19V5H8v13.167a3.5 3.5 0 1 1-3.5-3.5H6zm0 13.667H4.5a1.5 1.5 0 1 0 1.5 1.5zm13 0h-1.5a1.5 1.5 0 1 0 1.5 1.5z" fill="currentColor"></path></symbol>
  <symbol id="icon-next-song" viewBox="0 0 16 16"><path d="M12.7 1a.7.7 0 0 0-.7.7v5.15L2.05 1.107A.7.7 0 0 0 1 1.712v12.575a.7.7 0 0 0 1.05.607L12 9.149V14.3a.7.7 0 0 0 .7.7h1.6a.7.7 0 0 0 .7-.7V1.7a.7.7 0 0 0-.7-.7z" fill="currentColor"></path></symbol>
  <symbol id="icon-notification" viewBox="0 0 16 16"><path d="M8 1.5a4 4 0 0 0-4 4v3.27a.75.75 0 0 1-.1.373L2.255 12h11.49L12.1 9.142a.75.75 0 0 1-.1-.374V5.5a4 4 0 0 0-4-4m-5.5 4a5.5 5.5 0 0 1 11 0v3.067l2.193 3.809a.75.75 0 0 1-.65 1.124H10.5a2.5 2.5 0 0 1-5 0H.957a.75.75 0 0 1-.65-1.124L2.5 8.569zm4.5 8a1 1 0 1 0 2 0z" fill="currentColor"></path></symbol>
  <symbol id="icon-pin" viewBox="0 0 16 16"><path d="M8.822.797a2.72 2.72 0 0 1 3.847 0l2.534 2.533a2.72 2.72 0 0 1 0 3.848l-3.678 3.678-1.337 4.988-4.486-4.486L1.28 15.78a.75.75 0 0 1-1.06-1.06l4.422-4.422L.156 5.812l4.987-1.337z" fill="currentColor"></path></symbol>
  <symbol id="icon-play" viewBox="0 0 24 24"><path d="m7.05 3.606 13.49 7.788a.7.7 0 0 1 0 1.212L7.05 20.394A.7.7 0 0 1 6 19.788V4.212a.7.7 0 0 1 1.05-.606" fill="currentColor"></path></symbol>
  <symbol id="icon-pause" viewBox="0 0 24 24"><path d="M6.7 4a.7.7 0 0 0-.7.7v14.6a.7.7 0 0 0 .7.7h2.6a.7.7 0 0 0 .7-.7V4.7a.7.7 0 0 0-.7-.7zm8 0a.7.7 0 0 0-.7.7v14.6a.7.7 0 0 0 .7.7h2.6a.7.7 0 0 0 .7-.7V4.7a.7.7 0 0 0-.7-.7z" fill="currentColor"></path></symbol>
  <symbol id="icon-previous-song" viewBox="0 0 16 16"><path d="M3.3 1a.7.7 0 0 1 .7.7v5.15l9.95-5.744a.7.7 0 0 1 1.05.606v12.575a.7.7 0 0 1-1.05.607L4 9.149V14.3a.7.7 0 0 1-.7.7H1.7a.7.7 0 0 1-.7-.7V1.7a.7.7 0 0 1 .7-.7z" fill="currentColor"></path></symbol>
  <symbol id="icon-queue" viewBox="0 0 16 16"><path d="M15 15H1v-1.5h14zm0-4.5H1V9h14zm-14-7A2.5 2.5 0 0 1 3.5 1h9a2.5 2.5 0 0 1 0 5h-9A2.5 2.5 0 0 1 1 3.5m2.5-1a1 1 0 0 0 0 2h9a1 1 0 1 0 0-2z" fill-opacity="0.7" fill="currentColor"></path></symbol>
  <symbol id="icon-repeat" viewBox="0 0 16 16"><path d="M0 4.75A3.75 3.75 0 0 1 3.75 1h8.5A3.75 3.75 0 0 1 16 4.75v5a3.75 3.75 0 0 1-3.75 3.75H9.81l1.018 1.018a.75.75 0 1 1-1.06 1.06L6.939 12.75l2.829-2.828a.75.75 0 1 1 1.06 1.06L9.811 12h2.439a2.25 2.25 0 0 0 2.25-2.25v-5a2.25 2.25 0 0 0-2.25-2.25h-8.5A2.25 2.25 0 0 0 1.5 4.75v5A2.25 2.25 0 0 0 3.75 12H5v1.5H3.75A3.75 3.75 0 0 1 0 9.75z" fill="currentColor"></path></symbol>
  <symbol id="icon-search" viewBox="0 0 24 24"><path d="M10.533 1.27893C5.35215 1.27893 1.12598 5.41887 1.12598 10.5579C1.12598 15.697 5.35215 19.8369 10.533 19.8369C12.767 19.8369 14.8235 19.0671 16.4402 17.7794L20.7929 22.132C21.1834 22.5226 21.8166 22.5226 22.2071 22.132C22.5976 21.7415 22.5976 21.1083 22.2071 20.7178L17.8634 16.3741C19.1616 14.7849 19.94 12.7634 19.94 10.5579C19.94 5.41887 15.7138 1.27893 10.533 1.27893ZM3.12598 10.5579C3.12598 6.55226 6.42768 3.27893 10.533 3.27893C14.6383 3.27893 17.94 6.55226 17.94 10.5579C17.94 14.5636 14.6383 17.8369 10.533 17.8369C6.42768 17.8369 3.12598 14.5636 3.12598 10.5579Z" fill="currentColor"></path></symbol>
  <symbol id="icon-shuffle" viewBox="0 0 16 16"><path d="M13.151.922a.75.75 0 1 0-1.06 1.06L13.109 3H11.16a3.75 3.75 0 0 0-2.873 1.34l-6.173 7.356A2.25 2.25 0 0 1 .39 12.5H0V14h.391a3.75 3.75 0 0 0 2.873-1.34l6.173-7.356a2.25 2.25 0 0 1 1.724-.804h1.947l-1.017 1.018a.75.75 0 0 0 1.06 1.06L15.98 3.75zM.391 3.5H0V2h.391c1.109 0 2.16.49 2.873 1.34L4.89 5.277l-.979 1.167-1.796-2.14A2.25 2.25 0 0 0 .39 3.5z" fill="currentColor"></path><path d="m7.5 10.723.98-1.167.957 1.14a2.25 2.25 0 0 0 1.724.804h1.947l-1.017-1.018a.75.75 0 1 1 1.06-1.06l2.829 2.828-2.829 2.828a.75.75 0 1 1-1.06-1.06L13.109 13H11.16a3.75 3.75 0 0 1-2.873-1.34l-.787-.938z" fill="currentColor"></path></symbol>
  <symbol id="icon-share" viewBox="0 0 24 24"><path d="M3 8a1 1 0 0 1 1-1h3.5v2H5v11h14V9h-2.5V7H20a1 1 0 0 1 1 1v13a1 1 0 0 1-1 1H4a1 1 0 0 1-1-1z" fill="currentColor"></path><path d="M12 12.326a1 1 0 0 0 1-1V3.841l1.793 1.793a1 1 0 1 0 1.414-1.414L12 .012 7.793 4.22a1 1 0 1 0 1.414 1.414L11 3.84v7.485a1 1 0 0 0 1 1z" fill="currentColor"></path></symbol>
  <symbol id="icon-spotify-logo" viewBox="0 0 24 24"><path d="M13.427.01C6.805-.253 1.224 4.902.961 11.524.698 18.147 5.853 23.728 12.476 23.99c6.622.263 12.203-4.892 12.466-11.514S20.049.272 13.427.01m5.066 17.579a.717.717 0 0 1-.977.268 14.4 14.4 0 0 0-5.138-1.747 14.4 14.4 0 0 0-5.42.263.717.717 0 0 1-.338-1.392c1.95-.474 3.955-.571 5.958-.29 2.003.282 3.903.928 5.647 1.92a.717.717 0 0 1 .268.978m1.577-3.15a.93.93 0 0 1-1.262.376 17.7 17.7 0 0 0-5.972-1.96 17.7 17.7 0 0 0-6.281.238.93.93 0 0 1-1.11-.71.93.93 0 0 1 .71-1.11 19.5 19.5 0 0 1 6.94-.262 19.5 19.5 0 0 1 6.599 2.165c.452.245.62.81.376 1.263m1.748-3.551a1.147 1.147 0 0 1-1.546.488 21.4 21.4 0 0 0-6.918-2.208 21.4 21.4 0 0 0-7.259.215 1.146 1.146 0 0 1-.456-2.246 23.7 23.7 0 0 1 8.034-.24 23.7 23.7 0 0 1 7.657 2.445c.561.292.78.984.488 1.546m13.612-.036-.832-.247c-1.67-.495-2.14-.681-2.14-1.353 0-.637.708-1.327 2.264-1.327 1.539 0 2.839.752 3.51 1.31.116.096.24.052.24-.098V6.935c0-.097-.027-.15-.098-.203-.83-.62-2.272-1.07-3.723-1.07-2.953 0-4.722 1.68-4.722 3.59 0 2.157 1.371 2.91 3.626 3.546l.973.274c1.689.478 1.998.902 1.998 1.556 0 1.097-.831 1.433-2.07 1.433-1.556 0-3.457-.911-4.35-2.025-.08-.098-.177-.053-.177.062v2.423c0 .097.01.141.08.22.743.814 2.52 1.53 4.59 1.53 2.546 0 4.456-1.485 4.456-3.784 0-1.787-1.052-2.865-3.625-3.635m10.107-1.76c-1.68 0-2.653 1.026-3.219 2.052V9.376c0-.08-.044-.124-.124-.124h-2.22c-.079 0-.123.044-.123.124V20.72c0 .08.044.124.124.124h2.22c.079 0 .123-.044.123-.124v-4.536c.566 1.025 1.521 2.034 3.237 2.034 2.264 0 3.89-1.955 3.89-4.581s-1.644-4.545-3.908-4.545m-.654 6.986c-1.185 0-2.211-1.167-2.618-2.458.407-1.362 1.344-2.405 2.618-2.405 1.211 0 2.051.92 2.051 2.423s-.84 2.44-2.051 2.44m40.633-6.826h-2.264c-.08 0-.115.017-.15.097l-2.282 5.483-2.29-5.483c-.035-.08-.07-.097-.15-.097h-3.661v-.584c0-.955.645-1.397 1.476-1.397.496 0 1.035.256 1.415.486.089.053.15-.008.115-.088l-.796-1.901a.26.26 0 0 0-.124-.133c-.389-.203-1.025-.38-1.644-.38-1.875 0-2.954 1.432-2.954 3.254v.743h-1.503c-.08 0-.124.044-.124.124v1.768c0 .08.044.124.124.124h1.503v6.668c0 .08.044.123.124.123h2.264c.08 0 .124-.044.124-.123v-6.668h1.936l2.812 6.11-1.512 3.325c-.044.098.009.142.097.142h2.414c.08 0 .116-.018.15-.097l4.997-11.355c.035-.08-.009-.141-.097-.141M54.964 9.04c-2.865 0-4.837 2.025-4.837 4.616 0 2.573 1.971 4.616 4.837 4.616 2.856 0 4.846-2.043 4.846-4.616 0-2.591-1.99-4.616-4.846-4.616m.008 7.065c-1.37 0-2.343-1.043-2.343-2.45 0-1.405.973-2.449 2.343-2.449 1.362 0 2.335 1.043 2.335 2.45 0 1.406-.973 2.45-2.335 2.45m33.541-6.334a1.24 1.24 0 0 0-.483-.471 1.4 1.4 0 0 0-.693-.17q-.384 0-.693.17a1.24 1.24 0 0 0-.484.471q-.174.302-.174.681 0 .375.174.677.175.3.484.471t.693.17.693-.17.483-.471.175-.676q0-.38-.175-.682m-.211 1.247a1 1 0 0 1-.394.39 1.15 1.15 0 0 1-.571.14 1.16 1.16 0 0 1-.576-.14 1 1 0 0 1-.391-.39 1.14 1.14 0 0 1-.14-.566q0-.316.14-.562t.391-.388.576-.14q.32 0 .57.14.253.141.395.39t.142.565q0 .312-.142.56m-19.835-5.78c-.85 0-1.468.6-1.468 1.396s.619 1.397 1.468 1.397c.866 0 1.485-.6 1.485-1.397 0-.796-.619-1.397-1.485-1.397m19.329 5.19a.31.31 0 0 0 .134-.262q0-.168-.132-.266-.132-.099-.381-.099h-.588v1.229h.284v-.489h.154l.374.489h.35l-.41-.518a.5.5 0 0 0 .215-.084m-.424-.109h-.26v-.3h.27q.12 0 .184.036a.12.12 0 0 1 .065.116.12.12 0 0 1-.067.111.4.4 0 0 1-.192.037M69.607 9.252h-2.263c-.08 0-.124.044-.124.124v8.56c0 .08.044.123.124.123h2.263c.08 0 .124-.044.124-.123v-8.56c0-.08-.044-.124-.124-.124m-3.333 6.605a2.1 2.1 0 0 1-1.053.257c-.725 0-1.185-.425-1.185-1.362v-3.484h2.211c.08 0 .124-.044.124-.124V9.376c0-.08-.044-.124-.124-.124h-2.21V6.944c0-.097-.063-.15-.15-.08l-3.954 3.113c-.053.044-.07.088-.07.16v1.007c0 .08.044.124.123.124h1.539v3.855c0 2.087 1.203 3.06 2.918 3.06.743 0 1.46-.194 1.884-.442.062-.035.07-.07.07-.133v-1.68c0-.088-.044-.115-.123-.07" transform="translate(-0.95,0)" stroke-opacity="0" stroke="currentColor" fill="currentColor"></path></symbol>
  <symbol id="icon-volume" viewBox="0 0 16 16"><path d="M9.741.85a.75.75 0 0 1 .375.65v13a.75.75 0 0 1-1.125.65l-6.925-4a3.64 3.64 0 0 1-1.33-4.967 3.64 3.64 0 0 1 1.33-1.332l6.925-4a.75.75 0 0 1 .75 0zm-6.924 5.3a2.14 2.14 0 0 0 0 3.7l5.8 3.35V2.8zm8.683 4.29V5.56a2.75 2.75 0 0 1 0 4.88" fill="currentColor"></path><path d="M11.5 13.614a5.752 5.752 0 0 0 0-11.228v1.55a4.252 4.252 0 0 1 0 8.127z" fill="currentColor"></path></symbol>
  <symbol id="icon-volume-off" viewBox="0 0 16 16"><path d="M13.86 5.47a.75.75 0 0 0-1.061 0l-1.47 1.47-1.47-1.47A.75.75 0 0 0 8.8 6.53L10.269 8l-1.47 1.47a.75.75 0 1 0 1.06 1.06l1.47-1.47 1.47 1.47a.75.75 0 0 0 1.06-1.06L12.39 8l1.47-1.47a.75.75 0 0 0 0-1.06" fill="currentColor"></path><path d="M10.116 1.5A.75.75 0 0 0 8.991.85l-6.925 4a3.64 3.64 0 0 0-1.33 4.967 3.64 3.64 0 0 0 1.33 1.332l6.925 4a.75.75 0 0 0 1.125-.649v-1.906a4.7 4.7 0 0 1-1.5-.694v1.3L2.817 9.852a2.14 2.14 0 0 1-.781-2.92c.187-.324.456-.594.78-.782l5.8-3.35v1.3c.45-.313.956-.55 1.5-.694z" fill="currentColor"></path></symbol>
  <symbol id="icon-square-view" viewBox="0 0 16 16">
    <path d="M1 1h6v6H1zm1.5 1.5v3h3v-3zM1 9h6v6H1zm1.5 1.5v3h3v-3zM9 1h6v6H9zm1.5 1.5v3h3v-3zM9 9h6v6H9zm1.5 1.5v3h3v-3z" fill-opacity="0.7" fill="currentColor"></path>
  </symbol>
  <symbol id="icon-list-view" viewBox="0 0 16 16">
    <path d="M15.5 13.5H.5V12h15zm0-4.75H.5v-1.5h15zm0-4.75H.5V2.5h15z" fill-opacity="0.7" fill="currentColor"></path>
  </symbol>
  <symbol id="icon-unexpend" viewBox="0 0 16 16"><path d="M14.53 1.47a.75.75 0 0 1 0 1.06l-2.72 2.72h1.018a.75.75 0 1 1 0 1.5H9.25V3.171a.75.75 0 1 1 1.5 0V4.19l2.72-2.72a.75.75 0 0 1 1.06 0M1.47 14.53a.75.75 0 0 1 0-1.06l2.72-2.72H3.171a.75.75 0 0 1 0-1.5H6.75v3.579a.75.75 0 1 1-1.5 0V11.81l-2.72 2.72a.75.75 0 0 1-1.06 0" fill="currentColor"></path></symbol>
  <symbol id="icon-edit" viewBox="0 0 24 24"><path d="M17.318 1.975a3.329 3.329 0 1 1 4.707 4.707L8.451 20.256c-.49.49-1.082.867-1.735 1.103L2.34 22.94a1 1 0 0 1-1.28-1.28l1.581-4.376a4.7 4.7 0 0 1 1.103-1.735zm3.293 1.414a1.33 1.33 0 0 0-1.88 0L5.159 16.963c-.283.283-.5.624-.636 1l-.857 2.372 2.371-.857a2.7 2.7 0 0 0 1.001-.636L20.611 5.268a1.33 1.33 0 0 0 0-1.879" fill="currentColor"></path></symbol>
  <symbol id="icon-home-hollow" viewBox="0 0 24 24"><path d="M12.5 3.247a1 1 0 0 0-1 0L4 7.577V20h4.5v-6a1 1 0 0 1 1-1h5a1 1 0 0 1 1 1v6H20V7.577zm-2-1.732a3 3 0 0 1 3 0l7.5 4.33a2 2 0 0 1 1 1.732V21a1 1 0 0 1-1 1h-6.5a1 1 0 0 1-1-1v-6h-3v6a1 1 0 0 1-1 1H3a1 1 0 0 1-1-1V7.577a2 2 0 0 1 1-1.732z" fill="currentColor"></path></symbol>
  <symbol id="icon-library" viewBox="0 0 24 24"><path d="M14.5 2.134a1 1 0 0 1 1 0l6 3.464a1 1 0 0 1 .5.866V21a1 1 0 0 1-1 1h-6a1 1 0 0 1-1-1V3a1 1 0 0 1 .5-.866M16 4.732V20h4V7.041zM3 22a1 1 0 0 1-1-1V3a1 1 0 0 1 2 0v18a1 1 0 0 1-1 1m6 0a1 1 0 0 1-1-1V3a1 1 0 0 1 2 0v18a1 1 0 0 1-1 1" fill="currentColor"></path></symbol>
  <symbol id="icon-verified" viewBox="0 0 24 24"><path d="M10.814.5a1.66 1.66 0 0 1 2.372 0l2.512 2.572 3.595-.043a1.66 1.66 0 0 1 1.678 1.678l-.043 3.595 2.572 2.512c.667.65.667 1.722 0 2.372l-2.572 2.512.043 3.595a1.66 1.66 0 0 1-1.678 1.678l-3.595-.043-2.512 2.572a1.66 1.66 0 0 1-2.372 0l-2.512-2.572-3.595.043a1.66 1.66 0 0 1-1.678-1.678l.043-3.595L.5 13.186a1.66 1.66 0 0 1 0-2.372l2.572-2.512-.043-3.595a1.66 1.66 0 0 1 1.678-1.678l3.595.043zm6.584 9.12a1 1 0 0 0-1.414-1.413l-6.011 6.01-1.894-1.893a1 1 0 0 0-1.414 1.414l3.308 3.308z" fill="currentColor"></path></symbol>
  <symbol id="icon-clock" viewBox="0 0 16 16"><path d="M8 1.5a6.5 6.5 0 1 0 0 13 6.5 6.5 0 0 0 0-13M0 8a8 8 0 1 1 16 0A8 8 0 0 1 0 8" fill="currentColor"></path><path d="M8 3.25a.75.75 0 0 1 .75.75v3.25H11a.75.75 0 0 1 0 1.5H7.25V4A.75.75 0 0 1 8 3.25" fill="currentColor"></path></symbol>
  <symbol id="icon-volume-playing" viewBox="0 0 24 24"><g transform="scale(1.5)"><path d="M10.016 1.125A.75.75 0 0 0 8.99.85l-6.925 4a3.64 3.64 0 0 0 0 6.299l6.925 4a.75.75 0 0 0 1.125-.65v-13a.75.75 0 0 0-.1-.375zM11.5 5.56a2.75 2.75 0 0 1 0 4.88z" fill="#1ED760"></path><path d="M16 8a5.75 5.75 0 0 1-4.5 5.614v-1.55a4.252 4.252 0 0 0 0-8.127v-1.55A5.75 5.75 0 0 1 16 8" fill="#1ED760"></path></g></symbol>
  <symbol id="icon-remove" viewBox="0 0 24 24"><g transform="scale(1.5)"><path d="M8 1.5a6.5 6.5 0 1 0 0 13 6.5 6.5 0 0 0 0-13M0 8a8 8 0 1 1 16 0A8 8 0 0 1 0 8" fill="currentColor"></path><path d="M12 8.75H4v-1.5h8z" fill="currentColor"></path></g></symbol>
  <symbol id="icon-plus" viewBox="0 0 24 24"><g transform="scale(1.5)"><path d="M15.25 8a.75.75 0 0 1-.75.75H8.75v5.75a.75.75 0 0 1-1.5 0V8.75H1.5a.75.75 0 0 1 0-1.5h5.75V1.5a.75.75 0 0 1 1.5 0v5.75h5.75a.75.75 0 0 1 .75.75" fill="currentColor"></path></g></symbol>
  <symbol id="icon-triangle-arrow" viewBox="0 0 24 24"><g transform="scale(1.5)"><g transform="rotate(-90 8 8)"><path d="m14 6-6 6-6-6z" fill="currentColor"></path></g></g></symbol>
</svg>
