<svg width="64" height="64" viewBox="0 0 64 64" fill="none" xmlns="http://www.w3.org/2000/svg">
<path d="M15.2938 40.6398C-3.22246 16.6257 17.7301 1.76882 31.5458 3.08025C49.3888 3.08025 69.5274 20.6068 43.6796 52.55C34.2458 64.2082 10.2224 62.6084 16.0565 45.9045C16.675 44.1333 16.4596 42.1517 15.2938 40.6398Z" fill="#BE0C0C"/>
<path d="M15.4264 16.8198C18.7283 16.2106 24.2687 15.7822 30.4939 16.3655C36.7173 16.9486 43.8264 18.5621 50.1187 22.1949C51.539 23.0149 52.0251 24.8309 51.2053 26.2513C50.3853 27.6716 48.5693 28.1597 47.1489 27.3399C41.8347 24.2717 35.6364 22.8137 29.941 22.28C24.2476 21.7465 19.2566 22.1552 16.5053 22.6628C14.8924 22.9604 13.3421 21.8935 13.0444 20.2808C12.7468 18.6679 13.8137 17.1176 15.4264 16.8198Z" fill="white"/>
<path d="M16.4703 26.6207C26.8648 24.5418 37.4439 25.5981 47.0288 31.9319C48.1691 32.6855 48.4821 34.2216 47.7287 35.3619C46.9752 36.5022 45.4391 36.8154 44.2987 36.0618C36.0275 30.5963 26.8447 29.593 17.4409 31.4737C16.1006 31.7418 14.7971 30.8728 14.5291 29.5325C14.2614 28.1924 15.1302 26.8887 16.4703 26.6207Z" fill="white"/>
<path d="M17.9931 35.7175C20.264 35.142 24.6822 34.7186 29.4035 35.1501C34.1027 35.5797 39.472 36.888 43.3571 40.0854C44.2013 40.7802 44.3229 42.0268 43.6284 42.8711C42.9335 43.7154 41.685 43.8372 40.8407 43.1424C37.8578 40.6877 33.4309 39.4951 29.0435 39.094C24.6785 38.695 20.7198 39.1114 18.9643 39.5563C17.9047 39.8243 16.8278 39.1822 16.5593 38.1225C16.2908 37.0627 16.9332 35.9861 17.9931 35.7175Z" fill="white"/>
<path d="M30.9688 50.5758C30.9688 52.5016 29.4075 54.0629 27.4817 54.0629C25.5558 54.0629 23.9946 52.5016 23.9946 50.5758C23.9946 48.6499 25.5558 47.0887 27.4817 47.0887C29.4075 47.0887 30.9688 48.6499 30.9688 50.5758Z" fill="white"/>
</svg>
