<svg width="64" height="64" viewBox="0 0 64 64" fill="none" xmlns="http://www.w3.org/2000/svg">
<path d="M15.2938 40.6398C-3.22246 16.6257 17.7301 1.76882 31.5458 3.08025C49.3888 3.08025 69.5274 20.6068 43.6796 52.55C34.2458 64.2082 10.2224 62.6084 16.0565 45.9045C16.675 44.1333 16.4596 42.1517 15.2938 40.6398Z" fill="#BE0C0C"/>
<path d="M15.4318 13.7312C18.7337 13.122 24.2742 12.6935 30.4994 13.2768C36.7227 13.86 43.8319 15.4734 50.1241 19.1062C51.5444 19.9263 52.0305 21.7423 51.2107 23.1627C50.3907 24.583 48.5747 25.071 47.1543 24.2512C41.8402 21.1831 35.6418 19.7251 29.9464 19.1913C24.253 18.6578 19.2621 19.0665 16.5107 19.5741C14.8979 19.8717 13.3476 18.8048 13.0498 17.1921C12.7522 15.5793 13.8191 14.029 15.4318 13.7312Z" fill="black"/>
<path d="M16.4757 23.532C26.8703 21.4532 37.4493 22.5094 47.0342 28.8433C48.1745 29.5968 48.4876 31.1329 47.7341 32.2733C46.9806 33.4136 45.4445 33.7267 44.3042 32.9732C36.0329 27.5077 26.8502 26.5043 17.4463 28.385C16.106 28.6531 14.8026 27.7841 14.5345 26.4438C14.2669 25.1038 15.1357 23.8 16.4757 23.532Z" fill="black"/>
<path d="M17.9985 32.6288C20.2694 32.0534 24.6877 31.6299 29.409 32.0615C34.1082 32.491 39.4774 33.7994 43.3625 36.9968C44.2067 37.6915 44.3283 38.9382 43.6338 39.7824C42.9389 40.6267 41.6905 40.7486 40.8462 40.0537C37.8632 37.599 33.4363 36.4065 29.049 36.0054C24.6839 35.6064 20.7252 36.0227 18.9697 36.4677C17.9101 36.7357 16.8333 36.0935 16.5647 35.0339C16.2963 33.974 16.9387 32.8975 17.9985 32.6288Z" fill="black"/>
<path d="M30.9688 50.5758C30.9688 52.5016 29.4075 54.0629 27.4817 54.0629C25.5558 54.0629 23.9946 52.5016 23.9946 50.5758C23.9946 48.6499 25.5558 47.0887 27.4817 47.0887C29.4075 47.0887 30.9688 48.6499 30.9688 50.5758Z" fill="black"/>
</svg>
