<svg width="94" height="25" viewBox="0 0 94 25" fill="none" xmlns="http://www.w3.org/2000/svg">
<path d="M90.3032 9.63011H87.6644C87.5712 9.63011 87.5304 9.64972 87.4896 9.74198L84.8298 16.0657L82.1607 9.74198C82.1199 9.64972 82.0791 9.63011 81.9859 9.63011H77.7188V8.95656C77.7188 7.85514 78.4706 7.34537 79.4392 7.34537C80.0173 7.34537 80.6455 7.64062 81.0884 7.90588C81.1921 7.96701 81.2632 7.89666 81.2224 7.80439L80.2947 5.61191C80.2667 5.54524 80.2154 5.49077 80.1501 5.45852C79.6967 5.22439 78.9555 5.02026 78.234 5.02026C76.0486 5.02026 74.791 6.67182 74.791 8.77319V9.63011H73.0391C72.9459 9.63011 72.8946 9.68086 72.8946 9.77312V11.8122C72.8946 11.9045 72.9459 11.9552 73.0391 11.9552H74.791V19.6456C74.791 19.7379 74.8422 19.7875 74.9355 19.7875H77.5743C77.6675 19.7875 77.7188 19.7367 77.7188 19.6456V11.9552H79.9753L83.2528 19.0021L81.4905 22.8369C81.4392 22.9499 81.501 23.0006 81.6036 23.0006H84.4172C84.5105 23.0006 84.5524 22.9799 84.592 22.8888L90.4163 9.79273C90.4571 9.70046 90.4058 9.63011 90.3032 9.63011ZM93.7964 10.2298C93.6631 10.0008 93.4682 9.81273 93.2334 9.68662C92.9858 9.55333 92.7075 9.48578 92.4257 9.49056C92.1273 9.49056 91.8581 9.55591 91.618 9.68662C91.3828 9.81256 91.1875 10.0006 91.0539 10.2298C90.9187 10.462 90.851 10.7238 90.851 11.0153C90.851 11.3036 90.9187 11.5639 91.0539 11.7961C91.1898 12.0267 91.3779 12.2078 91.618 12.3393C91.8581 12.4708 92.1273 12.5361 92.4257 12.5353C92.7241 12.5346 92.9933 12.4692 93.2334 12.3393C93.4735 12.2093 93.6612 12.0283 93.7964 11.7961C93.9316 11.5639 93.9996 11.304 94.0004 11.0164C94.0004 10.7242 93.9324 10.462 93.7964 10.2298ZM93.5505 11.668C93.4433 11.8578 93.2841 12.0137 93.0912 12.1178C92.8873 12.2278 92.6579 12.2835 92.4257 12.2793C92.1916 12.2839 91.9602 12.2283 91.7544 12.1178C91.5628 12.0132 91.4049 11.8573 91.2986 11.668C91.188 11.4681 91.1317 11.2432 91.1355 11.0153C91.1355 10.7723 91.1898 10.5562 91.2986 10.3671C91.4074 10.1779 91.5593 10.0288 91.7544 9.91959C91.9494 9.81041 92.1732 9.75659 92.4257 9.75813C92.6743 9.75813 92.8958 9.81195 93.0901 9.91959C93.2867 10.028 93.4401 10.1779 93.5505 10.3694C93.6608 10.5608 93.716 10.7781 93.716 11.021C93.716 11.2609 93.6608 11.4762 93.5505 11.6669M70.4318 5.00065C69.4411 5.00065 68.7208 5.69264 68.7208 6.61069C68.7208 7.52874 69.4422 8.22189 70.4318 8.22189C71.4412 8.22189 72.1626 7.5299 72.1626 6.61069C72.1626 5.69264 71.4412 5.00065 70.4318 5.00065ZM92.9607 10.9853C93.01 10.9517 93.0501 10.9064 93.0773 10.8537C93.1046 10.8009 93.1182 10.7423 93.1169 10.6831C93.1169 10.5539 93.0656 10.4517 92.963 10.3763C92.8605 10.3002 92.7124 10.2621 92.519 10.2621H91.8336V11.6796H92.1646V11.1156H92.3441L92.78 11.6796H93.188L92.7101 11.0821C92.8001 11.0696 92.8859 11.0365 92.9607 10.9853ZM92.4665 10.8596H92.1635V10.5136H92.4782C92.5714 10.5136 92.6429 10.5274 92.6926 10.5551C92.7172 10.5675 92.7375 10.5868 92.7509 10.6106C92.7644 10.6344 92.7705 10.6617 92.7684 10.6889C92.7691 10.7154 92.7621 10.7415 92.7483 10.7642C92.7345 10.7869 92.7143 10.8052 92.6903 10.8169C92.6204 10.8492 92.5435 10.8639 92.4665 10.8596ZM71.7605 9.63011H69.1229C69.0296 9.63011 68.9784 9.68086 68.9784 9.77312V19.6456C68.9784 19.7379 69.0296 19.7875 69.1229 19.7875H71.7605C71.8538 19.7875 71.9051 19.7367 71.9051 19.6456V9.77312C71.9051 9.68086 71.8538 9.63011 71.7605 9.63011ZM67.8758 17.2478C67.4999 17.4512 67.0767 17.5534 66.6484 17.5443C65.8034 17.5443 65.2673 17.0541 65.2673 15.9734V11.9552H67.8443C67.9375 11.9552 67.9888 11.9045 67.9888 11.8122V9.77312C67.9888 9.68086 67.9375 9.63011 67.8443 9.63011H65.2684V6.96823C65.2684 6.85635 65.195 6.79523 65.0936 6.87596L60.485 10.4663C60.4232 10.517 60.4034 10.5678 60.4034 10.6508V11.8122C60.4034 11.9045 60.4547 11.9552 60.5468 11.9552H62.3406V16.4013C62.3406 18.8083 63.7427 19.9305 65.7416 19.9305C66.6076 19.9305 67.4433 19.7067 67.9375 19.4207C68.0098 19.3803 68.0191 19.34 68.0191 19.2673V17.3297C68.0191 17.2282 67.9678 17.1959 67.8758 17.2478Z" fill="white"/>
<path d="M57.3144 19.6318V17.5879L57.1238 17.1402V13.4807C57.1238 12.8319 56.9269 12.3258 56.5331 11.9625C56.1519 11.5991 55.5612 11.4174 54.7608 11.4174C54.2145 11.4174 53.6746 11.5083 53.141 11.6899C52.6201 11.8586 52.1754 12.0922 51.807 12.3907L50.7398 10.269C51.2988 9.8667 51.9722 9.55526 52.7598 9.33465C53.5475 9.11405 54.3479 9.00375 55.161 9.00375C56.7236 9.00375 57.9369 9.38007 58.8008 10.1327C59.6647 10.8854 60.0967 12.0598 60.0967 13.6559V19.6318H57.3144ZM54.1891 19.7875C53.3887 19.7875 52.7027 19.6512 52.131 19.3787C51.5593 19.0932 51.121 18.7104 50.8161 18.2303C50.5111 17.7501 50.3587 17.2116 50.3587 16.6146C50.3587 15.9918 50.5048 15.4467 50.797 14.9796C51.1019 14.5124 51.5783 14.1491 52.2262 13.8895C52.8742 13.617 53.719 13.4807 54.7608 13.4807H57.4859V15.2521H55.0848C54.386 15.2521 53.9032 15.3689 53.6364 15.6025C53.3824 15.836 53.2553 16.128 53.2553 16.4784C53.2553 16.8677 53.4014 17.1791 53.6936 17.4127C53.9985 17.6333 54.4114 17.7436 54.9323 17.7436C55.4278 17.7436 55.8724 17.6268 56.2663 17.3932C56.6601 17.1467 56.946 16.7898 57.1238 16.3227L57.5812 17.7242C57.3652 18.399 56.9714 18.9115 56.3997 19.2619C55.828 19.6123 55.0911 19.7875 54.1891 19.7875Z" fill="white"/>
<path d="M45.7048 19.7875C44.536 19.7875 43.5069 19.5539 42.6176 19.0867C41.741 18.6196 41.0613 17.9837 40.5786 17.1791C40.0958 16.3616 39.8544 15.4338 39.8544 14.3956C39.8544 13.3445 40.0894 12.4166 40.5595 11.6121C41.0423 10.7945 41.6965 10.1587 42.5223 9.70449C43.3481 9.23733 44.2819 9.00375 45.3237 9.00375C46.3273 9.00375 47.2293 9.22435 48.0297 9.66556C48.8428 10.0938 49.4844 10.7167 49.9545 11.5342C50.4245 12.3388 50.6596 13.3056 50.6596 14.4345C50.6596 14.5513 50.6532 14.6876 50.6405 14.8433C50.6278 14.9861 50.6151 15.1223 50.6024 15.2521H42.2746V13.4807H49.0397L47.8963 14.0063C47.8963 13.4613 47.7883 12.9876 47.5724 12.5853C47.3564 12.1831 47.0578 11.8716 46.6767 11.651C46.2956 11.4174 45.8509 11.3006 45.3427 11.3006C44.8346 11.3006 44.3835 11.4174 43.9897 11.651C43.6086 11.8716 43.31 12.1895 43.094 12.6048C42.8781 13.0071 42.7701 13.4872 42.7701 14.0452V14.5124C42.7701 15.0834 42.8908 15.5895 43.1322 16.0307C43.3862 16.4589 43.7356 16.7898 44.1803 17.0234C44.6376 17.244 45.1712 17.3543 45.781 17.3543C46.3273 17.3543 46.8037 17.27 47.2103 17.1013C47.6295 16.9326 48.0107 16.6795 48.3537 16.3421L49.9354 18.094C49.4653 18.639 48.8746 19.0608 48.1631 19.3592C47.4517 19.6447 46.6322 19.7875 45.7048 19.7875Z" fill="white"/>
<path d="M25.0004 19.6318V6.0061H27.4055L32.7542 15.6219H31.4799L36.7389 6.0061H39.1261L39.162 19.6318H36.4337L36.4158 10.5415H36.9184L32.7183 18.1913H31.4081L27.1183 10.5415H27.7286V19.6318H25.0004Z" fill="white"/>
<path d="M3.12888 16.1487C-4.81434 5.84638 4.1743 -0.527936 10.1015 0.0343925C17.7567 0.0344327 26.3971 7.55446 15.3076 21.259C11.2602 26.2605 0.953283 25.5737 3.45602 18.4074C3.72131 17.6477 3.62889 16.7972 3.12888 16.1487ZM8.35837 18.9153C7.53225 18.9153 6.8624 19.5852 6.86227 20.4113C6.86239 21.2375 7.53224 21.9074 8.35837 21.9074C9.18438 21.9072 9.85434 21.2374 9.85446 20.4113C9.85434 19.5853 9.18437 18.9155 8.35837 18.9153ZM9.18454 12.468C7.15915 12.2829 5.26324 12.4643 4.28903 12.7112C3.83467 12.8266 3.5598 13.2889 3.67477 13.7434C3.79009 14.1977 4.25158 14.4734 4.70602 14.3586C5.45913 14.1677 7.15765 13.9892 9.03024 14.1604C10.9124 14.3324 12.812 14.8437 14.0918 15.8967C14.454 16.1948 14.9899 16.1427 15.2881 15.7805C15.5858 15.4183 15.5338 14.8832 15.1718 14.5852C13.505 13.2135 11.2006 12.6523 9.18454 12.468ZM16.747 11.0871C12.6349 8.36983 8.0952 7.91692 3.63571 8.80881C3.06117 8.92402 2.68904 9.48318 2.80368 10.0578C2.9187 10.6328 3.47773 11.0058 4.0527 10.8908C8.08712 10.084 12.0266 10.5149 15.5752 12.8596C16.0644 13.1828 16.7236 13.048 17.0468 12.5588C17.37 12.0697 17.236 11.4104 16.747 11.0871ZM9.65231 4.40842C6.98186 4.15825 4.60497 4.3424 3.18845 4.60373C2.49683 4.73147 2.0388 5.39645 2.16599 6.0881C2.29374 6.77999 2.95942 7.23818 3.65134 7.11056C4.83171 6.89283 6.97276 6.71771 9.41501 6.9465C11.8584 7.17549 14.518 7.8012 16.7978 9.1174C17.407 9.46903 18.1861 9.25957 18.5381 8.6506C18.8897 8.04124 18.6816 7.26118 18.0722 6.90939C15.3728 5.35097 12.3222 4.65859 9.65231 4.40842Z" fill="#BE0C0C"/>
</svg>
